<svg width="175" height="34" viewBox="0 0 175 34" fill="none" xmlns="http://www.w3.org/2000/svg">
<path d="M21.872 1.592H25.568V27.464H21.872V1.592ZM5.464 3.664H9.132V9.908H14.508V3.664H18.176V21.444H5.464V3.664ZM9.132 12.792V18.504H14.508V12.792H9.132ZM46.5378 10.972V16.936H43.0938V2.096H46.5378V7.976H48.4418V1.62H51.9418V17.748H48.4418V10.972H46.5378ZM42.3658 4.252V7.108H29.8218V4.252H34.2738V1.9H37.9138V4.252H42.3658ZM33.8538 12.428C33.8538 13.632 34.7778 14.304 36.1498 14.304C37.5218 14.304 38.4178 13.632 38.4178 12.428C38.4178 11.224 37.5218 10.58 36.1498 10.58C34.7778 10.58 33.8538 11.224 33.8538 12.428ZM41.6938 12.428C41.6938 15.088 39.3978 16.936 36.1498 16.936C32.8738 16.936 30.5778 15.088 30.5778 12.428C30.5778 9.768 32.8738 7.948 36.1498 7.948C39.3978 7.948 41.6938 9.768 41.6938 12.428ZM43.2058 24.664C46.6498 24.664 48.3858 24.076 48.3858 22.732C48.3858 21.388 46.6498 20.8 43.2058 20.8C39.7618 20.8 38.0258 21.388 38.0258 22.732C38.0258 24.076 39.7618 24.664 43.2058 24.664ZM43.2058 18.028C48.7498 18.028 52.0818 19.736 52.0818 22.732C52.0818 25.728 48.7498 27.408 43.2058 27.408C37.6618 27.408 34.3298 25.728 34.3298 22.732C34.3298 19.736 37.6618 18.028 43.2058 18.028ZM57.1476 4.28H69.5236C69.5236 12.176 66.8636 18.616 57.7076 23.04L55.7756 20.128C62.3556 16.964 65.2116 12.932 65.7436 7.22H57.1476V4.28ZM73.4716 1.592H77.1956V27.38H73.4716V1.592ZM85.7614 14.024V18.364C88.1974 18.308 90.4934 18.168 93.0974 17.748L93.4054 20.716C90.0734 21.304 87.2174 21.388 83.9974 21.388H82.1774V11.112H87.6934V7.08H82.1494V4.14H91.2774V14.024H85.7614ZM94.8614 10.384V2.068H98.2774V26.204H94.8614V13.408H92.3134V10.384H94.8614ZM100.097 1.592H103.597V27.38H100.097V1.592ZM112.079 13.828V18.644C115.551 18.616 118.379 18.476 121.543 17.972L121.879 20.94C118.155 21.528 114.851 21.612 110.511 21.612H108.411V3.776H120.339V6.744H112.079V10.944H119.471V13.828H112.079ZM125.183 1.592H128.879V27.464H125.183V13.66H120.759V10.692H125.183V1.592Z" fill="#59A4FB"/>
<path fill-rule="evenodd" clip-rule="evenodd" d="M143.311 1.3823L141.732 0.480591L141.816 2.2969L143.001 27.9034L143.065 29.2834L144.356 28.7917L158.245 23.5016L156.852 28.3701L154.365 26.2404C153.945 25.8812 153.314 25.9301 152.955 26.3496C152.596 26.7691 152.644 27.4004 153.064 27.7596L156.734 30.9024L157.917 31.9157L158.346 30.418L160.39 23.2751L160.58 22.6124L160.726 22.5567L160.628 22.4423L160.665 22.3137L160.472 22.2584L159.808 21.4781L150.761 10.8518C150.403 10.4313 149.772 10.3806 149.352 10.7386C148.931 11.0966 148.881 11.7277 149.239 12.1483L157.367 21.696L144.935 26.431L143.898 4.02074L168.616 18.137L162.215 20.0416C161.685 20.1991 161.384 20.7559 161.542 21.2852C161.699 21.8146 162.256 22.116 162.785 21.9585L171.428 19.387L173.67 18.72L171.639 17.5602L143.311 1.3823Z" fill="#59A4FB"/>
<path d="M141.732 0.480591L141.856 0.263499L141.461 0.0380722L141.482 0.492149L141.732 0.480591ZM143.311 1.3823L143.435 1.1652L143.311 1.3823ZM141.816 2.2969L142.066 2.28534L141.816 2.2969ZM143.001 27.9034L142.751 27.915L143.001 27.9034ZM143.065 29.2834L142.815 29.295L142.831 29.64L143.154 29.517L143.065 29.2834ZM144.356 28.7917L144.445 29.0253L144.356 28.7917ZM158.245 23.5016L158.485 23.5704L158.623 23.0902L158.156 23.268L158.245 23.5016ZM156.852 28.3701L156.689 28.56L156.985 28.8133L157.092 28.4388L156.852 28.3701ZM154.365 26.2404L154.202 26.4303V26.4303L154.365 26.2404ZM152.955 26.3496L152.765 26.187L152.955 26.3496ZM153.064 27.7596L153.227 27.5697L153.064 27.7596ZM156.734 30.9024L156.897 30.7125V30.7125L156.734 30.9024ZM157.917 31.9157L157.755 32.1055L158.051 32.3589L158.158 31.9844L157.917 31.9157ZM158.346 30.418L158.106 30.3492V30.3492L158.346 30.418ZM160.39 23.2751L160.15 23.2063L160.39 23.2751ZM160.58 22.6124L160.491 22.3787L160.374 22.4233L160.339 22.5436L160.58 22.6124ZM160.726 22.5567L160.815 22.7903L161.146 22.6643L160.916 22.3947L160.726 22.5567ZM160.628 22.4423L160.388 22.3735L160.351 22.5023L160.438 22.6043L160.628 22.4423ZM160.665 22.3137L160.905 22.3825L160.974 22.1421L160.734 22.0734L160.665 22.3137ZM160.472 22.2584L160.281 22.4204L160.33 22.478L160.403 22.4987L160.472 22.2584ZM159.808 21.4781L159.617 21.6402L159.808 21.4781ZM150.761 10.8518L150.952 10.6898L150.761 10.8518ZM149.352 10.7386L149.514 10.929L149.352 10.7386ZM149.239 12.1483L149.048 12.3103L149.239 12.1483ZM157.367 21.696L157.456 21.9297L157.786 21.8036L157.557 21.534L157.367 21.696ZM144.935 26.431L144.685 26.4425L144.701 26.7875L145.024 26.6646L144.935 26.431ZM143.898 4.02074L144.022 3.80365L143.627 3.57822L143.648 4.0323L143.898 4.02074ZM168.616 18.137L168.687 18.3767L169.248 18.2099L168.74 17.9199L168.616 18.137ZM162.215 20.0416L162.286 20.2812H162.286L162.215 20.0416ZM161.542 21.2852L161.781 21.2139V21.2139L161.542 21.2852ZM162.785 21.9585L162.714 21.7189L162.785 21.9585ZM171.428 19.387L171.499 19.6266L171.428 19.387ZM173.67 18.72L173.741 18.9597L174.301 18.7929L173.794 18.5029L173.67 18.72ZM171.639 17.5602L171.763 17.3431L171.639 17.5602ZM141.608 0.697683L143.187 1.59939L143.435 1.1652L141.856 0.263499L141.608 0.697683ZM142.066 2.28534L141.982 0.469033L141.482 0.492149L141.566 2.30846L142.066 2.28534ZM143.251 27.8919L142.066 2.28534L141.566 2.30846L142.751 27.915L143.251 27.8919ZM143.315 29.2719L143.251 27.8919L142.751 27.915L142.815 29.295L143.315 29.2719ZM144.267 28.5581L142.976 29.0498L143.154 29.517L144.445 29.0253L144.267 28.5581ZM158.156 23.268L144.267 28.5581L144.445 29.0253L158.334 23.7353L158.156 23.268ZM157.092 28.4388L158.485 23.5704L158.005 23.4328L156.611 28.3013L157.092 28.4388ZM154.202 26.4303L156.689 28.56L157.014 28.1802L154.527 26.0505L154.202 26.4303ZM153.145 26.5122C153.414 26.1976 153.888 26.1609 154.202 26.4303L154.527 26.0505C154.003 25.6015 153.214 25.6626 152.765 26.187L153.145 26.5122ZM153.227 27.5697C152.912 27.3003 152.875 26.8268 153.145 26.5122L152.765 26.187C152.316 26.7113 152.377 27.5004 152.901 27.9495L153.227 27.5697ZM156.897 30.7125L153.227 27.5697L152.901 27.9495L156.572 31.0923L156.897 30.7125ZM158.08 31.7258L156.897 30.7125L156.572 31.0923L157.755 32.1055L158.08 31.7258ZM158.106 30.3492L157.677 31.8469L158.158 31.9844L158.586 30.4868L158.106 30.3492ZM160.15 23.2063L158.106 30.3492L158.586 30.4868L160.63 23.3439L160.15 23.2063ZM160.339 22.5436L160.15 23.2063L160.63 23.3439L160.82 22.6811L160.339 22.5436ZM160.637 22.3231L160.491 22.3787L160.669 22.846L160.815 22.7903L160.637 22.3231ZM160.438 22.6043L160.535 22.7188L160.916 22.3947L160.819 22.2802L160.438 22.6043ZM160.425 22.2449L160.388 22.3735L160.869 22.511L160.905 22.3825L160.425 22.2449ZM160.403 22.4987L160.596 22.5541L160.734 22.0734L160.541 22.018L160.403 22.4987ZM159.617 21.6402L160.281 22.4204L160.662 22.0963L159.998 21.3161L159.617 21.6402ZM150.571 11.0139L159.617 21.6402L159.998 21.3161L150.952 10.6898L150.571 11.0139ZM149.514 10.929C149.829 10.6605 150.303 10.6985 150.571 11.0139L150.952 10.6898C150.504 10.1641 149.715 10.1007 149.19 10.5482L149.514 10.929ZM149.429 11.9862C149.16 11.6708 149.198 11.1975 149.514 10.929L149.19 10.5482C148.664 10.9957 148.601 11.7847 149.048 12.3103L149.429 11.9862ZM157.557 21.534L149.429 11.9862L149.048 12.3103L157.176 21.8581L157.557 21.534ZM145.024 26.6646L157.456 21.9297L157.278 21.4624L144.846 26.1973L145.024 26.6646ZM143.648 4.0323L144.685 26.4425L145.185 26.4194L144.148 4.00918L143.648 4.0323ZM168.74 17.9199L144.022 3.80365L143.774 4.23783L168.492 18.3541L168.74 17.9199ZM162.286 20.2812L168.687 18.3767L168.545 17.8974L162.144 19.802L162.286 20.2812ZM161.781 21.2139C161.663 20.8169 161.889 20.3993 162.286 20.2812L162.144 19.802C161.482 19.9988 161.105 20.6948 161.302 21.3565L161.781 21.2139ZM162.714 21.7189C162.317 21.837 161.899 21.611 161.781 21.2139L161.302 21.3565C161.499 22.0182 162.195 22.395 162.856 22.1981L162.714 21.7189ZM171.357 19.1474L162.714 21.7189L162.856 22.1981L171.499 19.6266L171.357 19.1474ZM173.598 18.4804L171.357 19.1474L171.499 19.6266L173.741 18.9597L173.598 18.4804ZM171.515 17.7773L173.546 18.9371L173.794 18.5029L171.763 17.3431L171.515 17.7773ZM143.187 1.59939L171.515 17.7773L171.763 17.3431L143.435 1.1652L143.187 1.59939Z" fill="#59A4FB"/>
</svg>
