<svg width="32" height="32" viewBox="0 0 32 32" fill="none" xmlns="http://www.w3.org/2000/svg">
<path d="M29.3298 2.65498C29.0276 2.36279 28.6485 2.15739 28.2341 2.06134C27.8197 1.96529 27.3862 1.98231 26.9811 2.11053L3.6058 9.70164C3.17228 9.83538 2.78919 10.0912 2.50492 10.4368C2.22064 10.7824 2.04794 11.2022 2.00862 11.6433C1.9693 12.0844 2.06512 12.527 2.28398 12.9151C2.50285 13.3032 2.83494 13.6194 3.23831 13.8239L12.9368 18.4905L17.7301 27.9639C17.9227 28.3347 18.2175 28.646 18.5815 28.863C18.9455 29.08 19.3644 29.1942 19.7912 29.1928H19.951C20.4081 29.16 20.8445 28.9941 21.2035 28.7167C21.5625 28.4393 21.8276 28.0632 21.9641 27.6372L29.8731 4.94164C30.0143 4.54954 30.0382 4.12644 29.9421 3.72162C29.8459 3.31679 29.6336 2.94689 29.3298 2.65498ZM4.59641 11.8483L24.9999 5.22164L13.6717 16.2505L4.59641 11.8483ZM19.903 26.735L15.3654 17.8994L26.6935 6.87053L19.903 26.735Z" fill="white"/>
</svg>
